ModelForces
version=1
nRows=4
nColumns=155
inDegrees=no

This file contains the forces exerted on a model during a simulation.

A force is a generalized force, meaning that it can be either a force (N) or a torque (Nm).

Units are S.I. units (second, meters, Newtons, ...)
Angles are in degrees.

endheader
time	glut_med1_r	glut_med2_r	glut_med3_r	glut_min1_r	glut_min2_r	glut_min3_r	semimem_r	semiten_r	bifemlh_r	bifemsh_r	sar_r	add_long_r	add_brev_r	add_mag1_r	add_mag2_r	add_mag3_r	tfl_r	pect_r	grac_r	glut_max1_r	glut_max2_r	glut_max3_r	iliacus_r	psoas_r	quad_fem_r	gem_r	peri_r	rect_fem_r	vas_med_r	vas_int_r	vas_lat_r	med_gas_r	lat_gas_r	soleus_r	tib_post_r	flex_dig_r	flex_hal_r	tib_ant_r	per_brev_r	per_long_r	per_tert_r	ext_dig_r	ext_hal_r	glut_med1_l	glut_med2_l	glut_med3_l	glut_min1_l	glut_min2_l	glut_min3_l	semimem_l	semiten_l	bifemlh_l	bifemsh_l	sar_l	add_long_l	add_brev_l	add_mag1_l	add_mag2_l	add_mag3_l	tfl_l	pect_l	grac_l	glut_max1_l	glut_max2_l	glut_max3_l	iliacus_l	psoas_l	quad_fem_l	gem_l	peri_l	rect_fem_l	vas_med_l	vas_int_l	vas_lat_l	med_gas_l	lat_gas_l	soleus_l	tib_post_l	flex_dig_l	flex_hal_l	tib_ant_l	per_brev_l	per_long_l	per_tert_l	ext_dig_l	ext_hal_l	ercspn_r	ercspn_l	intobl_r	intobl_l	extobl_r	extobl_l	femur_lat_meniscii_r.femur_lat_r.force.X	femur_lat_meniscii_r.femur_lat_r.force.Y	femur_lat_meniscii_r.femur_lat_r.force.Z	femur_lat_meniscii_r.femur_lat_r.torque.X	femur_lat_meniscii_r.femur_lat_r.torque.Y	femur_lat_meniscii_r.femur_lat_r.torque.Z	femur_lat_meniscii_r.meniscus_lat_r.force.X	femur_lat_meniscii_r.meniscus_lat_r.force.Y	femur_lat_meniscii_r.meniscus_lat_r.force.Z	femur_lat_meniscii_r.meniscus_lat_r.torque.X	femur_lat_meniscii_r.meniscus_lat_r.torque.Y	femur_lat_meniscii_r.meniscus_lat_r.torque.Z	femur_med_meniscii_r.femur_med_r.force.X	femur_med_meniscii_r.femur_med_r.force.Y	femur_med_meniscii_r.femur_med_r.force.Z	femur_med_meniscii_r.femur_med_r.torque.X	femur_med_meniscii_r.femur_med_r.torque.Y	femur_med_meniscii_r.femur_med_r.torque.Z	femur_med_meniscii_r.meniscus_med_r.force.X	femur_med_meniscii_r.meniscus_med_r.force.Y	femur_med_meniscii_r.meniscus_med_r.force.Z	femur_med_meniscii_r.meniscus_med_r.torque.X	femur_med_meniscii_r.meniscus_med_r.torque.Y	femur_med_meniscii_r.meniscus_med_r.torque.Z	femur_med_tibia_r.tibia_upper_r.force.X	femur_med_tibia_r.tibia_upper_r.force.Y	femur_med_tibia_r.tibia_upper_r.force.Z	femur_med_tibia_r.tibia_upper_r.torque.X	femur_med_tibia_r.tibia_upper_r.torque.Y	femur_med_tibia_r.tibia_upper_r.torque.Z	femur_med_tibia_r.femur_med_r.force.X	femur_med_tibia_r.femur_med_r.force.Y	femur_med_tibia_r.femur_med_r.force.Z	femur_med_tibia_r.femur_med_r.torque.X	femur_med_tibia_r.femur_med_r.torque.Y	femur_med_tibia_r.femur_med_r.torque.Z	femur_lat_tibia_r.tibia_upper_r.force.X	femur_lat_tibia_r.tibia_upper_r.force.Y	femur_lat_tibia_r.tibia_upper_r.force.Z	femur_lat_tibia_r.tibia_upper_r.torque.X	femur_lat_tibia_r.tibia_upper_r.torque.Y	femur_lat_tibia_r.tibia_upper_r.torque.Z	femur_lat_tibia_r.femur_lat_r.force.X	femur_lat_tibia_r.femur_lat_r.force.Y	femur_lat_tibia_r.femur_lat_r.force.Z	femur_lat_tibia_r.femur_lat_r.torque.X	femur_lat_tibia_r.femur_lat_r.torque.Y	femur_lat_tibia_r.femur_lat_r.torque.Z	aACL_R	pACL_R	aPCL_R	pPCL_R	aMCL_R	mMCL_R	pMCL_R	aLCL_R	mLCL_R	pLCL_R	aPCL_L	pPCL_L	aMCL_L	aLCL_L
      0.09010986	     18.18835241	     12.90257470	     13.94383704	      5.85917341	      6.68664444	      7.68023510	    147.69793342	    185.28499747	    179.25195955	    324.05727691	    134.66045556	     12.90050030	      9.05935443	      6.62443994	      5.67172783	      9.80001370	      6.21251644	      4.96071907	    109.63039173	      8.35345949	     12.71673251	      9.61016818	     36.03702401	     28.19481381	      8.12723386	      5.06246709	     11.26022247	     44.43078827	     34.48651190	     34.80526985	     49.44394146	     24.33895836	      4.88856776	      0.00000000	      0.00000000	      0.00000000	      0.00000000	     35.20935088	     11.34662602	     12.13472304	     18.55955187	     22.36055775	      6.05656281	     18.18835241	     12.90257470	     13.94383704	      5.85917341	      6.68664444	      7.68023510	     23.13849813	      9.78136765	     19.99734268	     16.18591679	      3.33673510	     12.90050030	      9.05935443	      6.62443994	      5.67172783	      9.80001370	      7.70390013	      4.96071907	      3.46898385	      8.35345949	     12.71673251	      9.61016818	     36.03702401	     28.19481381	      8.12723386	      5.06246709	     11.26022247	     27.57121534	     15.37448922	     17.86273383	     19.20098736	     40.05984370	     18.64466245	     85.79307519	     66.14480792	      9.15231006	      8.99690555	     21.41673679	     11.61570177	     28.14431017	      4.35320916	     14.21493797	      4.44089490	     55.19984802	     55.19984802	     21.13489373	     21.13489373	     37.86857550	     37.86857550	    -11.26609095	    218.37831943	     22.23020549	    -14.37692407	     -0.19012894	     -6.12882570	     11.26609095	   -218.37831943	    -22.23020549	      6.40575674	     -0.06432266	      4.58870568	     -2.03375417	    224.35709398	      8.68554627	      1.13874277	      0.14092832	     -2.40407815	      2.03375417	   -224.35709398	     -8.68554627	     -3.89442735	     -0.24645462	      4.48468297	    -17.96465126	   -625.55826370	     12.96608159	    -11.70923034	      0.50095143	      8.91811144	     17.96465126	    625.55826370	    -12.96608159	     18.30116584	     -0.38193548	      5.95710231	      3.83212610	    -18.48048510	     -4.04308556	      0.60253147	      0.03279545	      0.42143024	     -3.83212610	     18.48048510	      4.04308556	     -2.10706870	     -0.07447281	     -1.65696148	     17.67532011	    -15.39895217	      0.00000000	      0.00000000	      0.00000000	     -2.50398601	    -43.59722866	      0.00000000	      0.00000000	      0.00000000	      0.00000000	      0.00000000	      0.00000001	      0.00000000
      0.09074797	     18.09672838	     12.84033536	     13.87591977	      5.83188858	      6.65648049	      7.64158560	    146.42556010	    184.49645663	    177.53592004	    322.99039635	    134.48127147	     12.83769027	      9.01753409	      6.59252009	      5.64389491	      9.75014719	      6.23935727	      4.93745145	    109.43070766	      8.31284968	     12.65484987	      9.56294015	     35.92001368	     28.06212146	      8.08865876	      5.04306333	     11.20259477	     44.23219733	     34.52097751	     37.40906413	     52.01239417	     15.61553786	      4.86819376	      0.00000000	      0.00000000	      0.00000000	      0.00000000	     35.30986530	     10.89403016	     11.68286477	     21.09020123	     22.44092946	      6.04198878	     18.09672838	     12.84033536	     13.87591977	      5.83188858	      6.65648049	      7.64158560	     23.02037280	      9.73223988	     19.89455805	     16.10896891	      3.32126439	     12.83769027	      9.01753409	      6.59252009	      5.64389491	      9.75014719	      7.67304800	      4.93745145	      3.45264358	      8.31284968	     12.65484987	      9.56294015	     35.92001368	     28.06212146	      8.08865876	      5.04306333	     11.20259477	     27.42938546	     15.29808051	     17.77318647	     19.10437761	     39.85814087	     18.55039120	     85.35275877	     65.94404189	      9.10491233	      8.94981144	     21.30682340	     11.55546129	     28.01321918	      4.33276516	     14.14141106	      4.41771094	     54.94228577	     54.94228577	     21.03019406	     21.03019406	     37.77138575	     37.77138575	    -12.99425254	    215.91875631	     21.77966699	    -14.12672499	     -0.23941562	     -6.86193478	     12.99425254	   -215.91875631	    -21.77966699	      6.31782129	     -0.00733577	      4.64920058	     -1.61371518	    224.68459134	      8.31466925	      1.30071709	      0.13890839	     -2.23487726	      1.61371518	   -224.68459134	     -8.31466925	     -3.91735470	     -0.24168526	      4.50434471	    -18.28677487	   -608.50270521	     13.55175068	    -11.44626671	      0.51913927	      8.77586622	     18.28677487	    608.50270521	    -13.55175068	     18.20860059	     -0.39174573	      6.06949157	      3.51420747	    -17.01863314	     -3.70297713	      0.55300328	      0.02931243	      0.39040940	     -3.51420747	     17.01863314	      3.70297713	     -1.93113063	     -0.06792135	     -1.52083884	     16.92208526	    -15.84761048	      0.00000000	      0.00000000	      0.00000000	     -1.52689067	    -42.66150962	      0.00000000	      0.00000000	      0.00000000	      0.00000000	      0.00000000	      0.00000001	      0.00000000
      0.09138607	     18.00591213	     12.77864962	     13.80860772	      5.80484434	      6.62658538	      7.60327749	    145.16007352	    183.70453645	    175.86794595	    322.03810266	    134.30973289	     12.77543978	      8.97608130	      6.56088490	      5.61631080	      9.70071491	      6.26996236	      4.91438967	    109.20979247	      8.27260354	     12.59352089	      9.51613387	     35.80406834	     27.93061528	      8.05042579	      5.02383531	     11.14541896	     44.05300950	     34.44974044	     38.68548227	     49.24938384	      8.39191708	      4.90905725	      0.00000000	      0.00000000	      0.00000000	      0.00000000	     35.39551328	     10.43393216	     11.22694938	     17.89103172	     22.52064152	      6.05154085	     18.00591213	     12.77864962	     13.80860772	      5.80484434	      6.62658538	      7.60327749	     22.90319177	      9.68354718	     19.79262485	     16.03270433	      3.30592988	     12.77543978	      8.97608130	      6.56088490	      5.61631080	      9.70071491	      7.64245469	      4.91438967	      3.43644793	      8.27260354	     12.59352089	      9.51613387	     35.80406834	     27.93061528	      8.05042579	      5.02383531	     11.14541896	     27.28874325	     15.22235884	     17.68444001	     19.00863597	     39.65793507	     18.45682413	     84.91589675	     65.74488942	      9.05796643	      8.90317443	     21.19784798	     11.49571524	     27.88328019	      4.31250490	     14.06836965	      4.39468203	     54.68699609	     54.68699609	     20.92642590	     20.92642590	     37.67508895	     37.67508895	    -15.40826825	    212.92710291	     20.91678268	    -13.68858069	     -0.31002426	     -7.87919104	     15.40826825	   -212.92710291	    -20.91678268	      6.19910425	      0.07815363	      4.72247606	     -3.62696048	    224.94105253	      8.78460651	      1.10861345	      0.18616700	     -3.09436046	      3.62696048	   -224.94105253	     -8.78460651	     -3.90913662	     -0.29078642	      4.61700312	    -15.47250685	   -590.65476908	     12.74758503	    -11.11710918	      0.45894477	      8.73247939	     15.47250685	    590.65476908	    -12.74758503	     17.51504356	     -0.33311212	      4.86348733	      3.28281148	    -15.47678218	     -3.32373417	      0.50078295	      0.02866815	      0.36132127	     -3.28281148	     15.47678218	      3.32373417	     -1.73760356	     -0.06338943	     -1.42123611	     15.43055281	    -16.95883397	      0.00000000	      0.00000000	      0.00000000	     -1.09094684	    -42.25973639	      0.00000000	      0.00000000	      0.00000000	      0.00000000	      0.00000000	      0.00000001	      0.00000000
      0.09202418	     17.91589644	     12.71751229	     13.74189522	      5.77803846	      6.59695657	      7.56530769	    143.84135543	    182.84047065	    174.17843094	    320.91924521	    134.08061490	     12.71374357	      8.93499265	      6.52953171	      5.58897317	      9.65171317	      6.30315835	      4.89153181	    108.92378351	      8.23271767	     12.53274038	      9.46974540	     35.68917778	     27.80028462	      8.01253173	      5.00478143	     11.08869257	     43.85884455	     34.46768498	     39.97083433	     51.85540625	      2.40788230	      5.01414686	      0.00000000	      0.00000000	      0.00000000	      0.00000000	     35.48992490	      9.96701658	     10.76892194	      3.67713852	     22.59985819	      6.06131831	     17.91589644	     12.71751229	     13.74189522	      5.77803846	      6.59695657	      7.56530769	     22.78694923	      9.63528560	     19.69153702	     15.95711665	      3.29073030	     12.71374357	      8.93499265	      6.52953171	      5.58897317	      9.65171317	      7.61211856	      4.89153181	      3.42039555	      8.23271767	     12.53274038	      9.46974540	     35.68917778	     27.80028462	      8.01253173	      5.00478143	     11.08869257	     27.14927986	     15.14731782	     17.59648716	     18.91375451	     39.45922071	     18.36395852	     84.48247010	     65.54734484	      9.01146503	      8.85698698	     21.08980305	     11.43646026	     27.75448272	      4.29242667	     13.99581960	      4.37181043	     54.43395773	     54.43395773	     20.82358060	     20.82358060	     37.57967640	     37.57967640	    -14.71219508	    210.25442079	     19.79926725	    -13.14603452	     -0.28597409	     -7.58894946	     14.71219508	   -210.25442079	    -19.79926725	      6.07478659	      0.06460686	      4.68529959	     -6.10348823	    227.41495342	      8.11009017	      1.45384222	      0.24347063	     -4.16099163	      6.10348823	   -227.41495342	     -8.11009017	     -3.99314715	     -0.33395109	      4.78712448	    -13.17370589	   -572.05660795	     12.00726788	    -10.77916501	      0.40902285	      8.64711295	     13.17370589	    572.05660795	    -12.00726788	     16.83604665	     -0.28552257	      3.88202603	      2.96398591	    -13.77977387	     -2.97037741	      0.44605518	      0.02569774	      0.32608249	     -2.96398591	     13.77977387	      2.97037741	     -1.55182324	     -0.05699507	     -1.28428085	     13.67298874	    -18.28347604	      0.00000000	      0.00000000	      0.00000000	     -0.97945571	    -42.16678625	      0.00000000	      0.00000000	      0.00000000	      0.00000000	      0.00000000	      0.00000001	      0.00000000
